# xmcd CD database file
# Generated: Thu Oct 3 01:25:45 2002 by KSCD
# 
# Track frame offsets:
#       150
#       21392
#       39452
#       49280
#       67025
#       82247
#       99480
#       126930
#       142340
#       154347
#       168080
#       188787
#
# Disc length: 2615 seconds
#
# Revision: 3
# Processed by: cddbd v1.4PL0 Copyright (c) Steve Scherf et al.
# Submitted via: Kscd 1.3.3
#
DISCID=b10a350c
DTITLE=Ken Nottingham - Songs from the shed
DYEAR=1900
DGENRE=
TTITLE0=The Ugly Truth
TTITLE1=Winnin'
TTITLE2=Colored Aristocracy
TTITLE3=Dressing David
TTITLE4=Lighting a Fire
TTITLE5=Tear Down These Walls
TTITLE6=All Over My Face
TTITLE7=Friday's Child
TTITLE8=Arkansas Traveler
TTITLE9=Bugs in a Jar
TTITLE10=Flying Through the Clouds
TTITLE11=Rhododendrons
EXTD=
EXTT0=
EXTT1=
EXTT2=
EXTT3=
EXTT4=
EXTT5=
EXTT6=
EXTT7=
EXTT8=
EXTT9=
EXTT10=
EXTT11=
PLAYORDER=
